<?xml version="1.0" encoding="utf-8"?>
<!-- Generator: Adobe Illustrator 23.0.3, SVG Export Plug-In . SVG Version: 6.00 Build 0)  -->
<svg version="1.1" id="Layer_1" xmlns="http://www.w3.org/2000/svg" xmlns:xlink="http://www.w3.org/1999/xlink" x="0px" y="0px"
	 viewBox="0 0 200 200" style="enable-background:new 0 0 200 200;" xml:space="preserve">
<style type="text/css">
	.st0{fill:#0E4954;stroke:#246383;stroke-miterlimit:10;}
	.st1{fill:none;stroke:#CC9083;stroke-miterlimit:10;}
	.st2{fill:#FFFFFF;stroke:#CC9083;stroke-miterlimit:10;}
</style>
<rect class="st0" width="200" height="200"/>
<circle class="st1" cx="95.07" cy="103.33" r="12.33"/>
<circle class="st1" cx="113.56" cy="103.33" r="12.33"/>
<path class="st1" d="M89.33,103.33c0,6.81-5.52,12.33-12.33,12.33s-12.33-5.52-12.33-12.33c0-6.81,5.52-12.33,12.33-12.33
	c5.19,0,8.68,3.56,9.07,3.98C86.58,95.52,89.33,98.74,89.33,103.33z"/>
<line class="st2" x1="77" y1="131.22" x2="77" y2="115.67"/>
<line class="st2" x1="72.72" y1="122.78" x2="81.28" y2="122.78"/>
<g>
	<line class="st2" x1="120.04" y1="92.54" x2="125.82" y2="78.1"/>
	<line class="st2" x1="125.82" y1="77.54" x2="128.85" y2="85.55"/>
	<line class="st2" x1="118.52" y1="81.21" x2="126.38" y2="77.83"/>
</g>
<line class="st2" x1="21.19" y1="50.06" x2="44.85" y2="50.06"/>
<line class="st2" x1="153.94" y1="77.54" x2="153.94" y2="61.99"/>
<circle class="st1" cx="153.94" cy="49.66" r="12.33"/>
<g>
	<line class="st2" x1="160.74" y1="39.71" x2="166.51" y2="25.27"/>
	<line class="st2" x1="166.51" y1="24.71" x2="169.55" y2="32.71"/>
	<line class="st2" x1="159.22" y1="28.38" x2="167.08" y2="25"/>
</g>
<g>
	<line class="st2" x1="146.76" y1="39.65" x2="139.16" y2="26.08"/>
	<line class="st2" x1="138.73" y1="25.73" x2="146.85" y2="28.4"/>
	<line class="st2" x1="136.99" y1="33.71" x2="139.3" y2="25.47"/>
</g>
<line class="st2" x1="140.06" y1="36.47" x2="147.32" y2="31.94"/>
<g>
	<circle class="st1" cx="95.07" cy="161.89" r="12.33"/>
	<line class="st2" x1="95.07" y1="149.56" x2="95.07" y2="134"/>
	<line class="st2" x1="91.62" y1="141.2" x2="98.53" y2="136.15"/>
	<line class="st2" x1="91.77" y1="136.06" x2="98.53" y2="141.29"/>
</g>
<g>
	<circle class="st1" cx="113.6" cy="50.89" r="12.33"/>
	<g>
		<line class="st2" x1="120.4" y1="40.95" x2="126.18" y2="26.51"/>
		<line class="st2" x1="126.18" y1="25.95" x2="129.21" y2="33.95"/>
		<line class="st2" x1="118.88" y1="29.62" x2="126.74" y2="26.24"/>
	</g>
</g>
<circle class="st1" cx="75.19" cy="50.89" r="12.33"/>
<line class="st2" x1="75.19" y1="78.79" x2="75.19" y2="63.23"/>
<line class="st2" x1="70.91" y1="70.35" x2="79.46" y2="70.35"/>
<line class="st2" x1="32.96" y1="37.37" x2="32.96" y2="21.81"/>
<circle class="st1" cx="32.96" cy="50.06" r="12.33"/>
<line class="st1" x1="85.74" y1="94.64" x2="104.08" y2="111.22"/>
<line class="st1" x1="86.01" y1="111.73" x2="104.14" y2="94.92"/>
<path class="st1" d="M-50.33,121.22"/>
</svg>
