<?xml version="1.0" encoding="utf-8"?>
<!-- Generator: Adobe Illustrator 23.0.3, SVG Export Plug-In . SVG Version: 6.00 Build 0)  -->
<svg version="1.1" id="Layer_1" xmlns="http://www.w3.org/2000/svg" xmlns:xlink="http://www.w3.org/1999/xlink" x="0px" y="0px"
	 viewBox="0 0 199 199" style="enable-background:new 0 0 199 199;" xml:space="preserve">
<style type="text/css">
	.st0{fill:#0E4954;}
	.st1{fill:#246383;}
	.st2{fill:none;stroke:#249083;stroke-miterlimit:10;}
</style>
<g>
	<g>
		<circle class="st0" cx="99" cy="100" r="91.5"/>
		<path class="st1" d="M99,9c50.18,0,91,40.82,91,91s-40.82,91-91,91S8,150.18,8,100S48.82,9,99,9 M99,8C48.19,8,7,49.19,7,100
			s41.19,92,92,92s92-41.19,92-92S149.81,8,99,8L99,8z"/>
	</g>
	<g>
		<g>
			<path class="st2" d="M45,158c5.74-12.24,11.48-24.48,17.22-36.71C74.77,94.52,87.32,67.76,99.87,41c17.38,39,34.75,78,52.13,117
				H45z"/>
			<line class="st2" x1="99.87" y1="41" x2="100.56" y2="158"/>
			<polyline class="st2" points="95.88,49.61 98.48,51.46 93.62,55.52 98.48,59.85 90.15,65.1 99.87,71.54 83.2,77.7 98.48,85.05 
				76.25,94.49 98.48,102.89 67.92,111.29 98.48,121.79 59.58,129.14 99.87,140.68 45.69,157.48 			"/>
		</g>
		<line class="st2" x1="29" y1="40.95" x2="168" y2="40.45"/>
	</g>
</g>
</svg>
