<?xml version="1.0" encoding="utf-8"?>
<!-- Generator: Adobe Illustrator 23.0.3, SVG Export Plug-In . SVG Version: 6.00 Build 0)  -->
<svg version="1.1" id="Layer_1" xmlns="http://www.w3.org/2000/svg" xmlns:xlink="http://www.w3.org/1999/xlink" x="0px" y="0px"
	 viewBox="0 0 199 199" style="enable-background:new 0 0 199 199;" xml:space="preserve">
<style type="text/css">
	.st0{fill:#0E4954;}
	.st1{fill:#246383;}
	.st2{fill:none;stroke:#CC9083;stroke-miterlimit:10;}
</style>
<g>
	<g>
		<circle class="st0" cx="100" cy="100" r="91.5"/>
		<path class="st1" d="M100,9c50.18,0,91,40.82,91,91s-40.82,91-91,91S9,150.18,9,100S49.82,9,100,9 M100,8C49.19,8,8,49.19,8,100
			s41.19,92,92,92s92-41.19,92-92S150.81,8,100,8L100,8z"/>
	</g>
	<g>
		<g>
			<path class="st2" d="M46,159c5.74-12.24,11.48-24.48,17.22-36.71C75.77,95.52,88.32,68.76,100.87,42c17.38,39,34.75,78,52.13,117
				H46z"/>
			<line class="st2" x1="100.87" y1="42" x2="101.56" y2="159"/>
			<polyline class="st2" points="96.88,50.61 99.48,52.46 94.62,56.52 99.48,60.85 91.15,66.1 100.87,72.54 84.2,78.7 99.48,86.05 
				77.25,95.49 99.48,103.89 68.92,112.29 99.48,122.79 60.58,130.14 100.87,141.68 46.69,158.48 			"/>
		</g>
		<line class="st2" x1="30" y1="41.95" x2="169" y2="41.45"/>
	</g>
</g>
</svg>
