<?xml version="1.0" encoding="utf-8"?>
<!-- Generator: Adobe Illustrator 23.0.3, SVG Export Plug-In . SVG Version: 6.00 Build 0)  -->
<svg version="1.1" id="Layer_1" xmlns="http://www.w3.org/2000/svg" xmlns:xlink="http://www.w3.org/1999/xlink" x="0px" y="0px"
	 viewBox="0 0 1897 235" style="enable-background:new 0 0 1897 235;" xml:space="preserve">
<style type="text/css">
	.st0{fill:#4F779C;}
	.st1{fill:none;stroke:#4F779C;stroke-width:2;stroke-miterlimit:10;}
	.st2{fill:#246383;stroke:#4F779C;stroke-width:2;stroke-miterlimit:10;}
	.st3{fill:none;stroke:#4F779C;stroke-width:3;stroke-miterlimit:10;}
</style>
<g>
	<g>
		<circle class="st0" cx="412" cy="159" r="7.5"/>
		<path class="st0" d="M412,152c3.86,0,7,3.14,7,7s-3.14,7-7,7s-7-3.14-7-7S408.14,152,412,152 M412,151c-4.42,0-8,3.58-8,8
			s3.58,8,8,8s8-3.58,8-8S416.42,151,412,151L412,151z"/>
	</g>
	<polyline class="st1" points="424.5,97.5 434.14,97 439.5,117.5 	"/>
	<line class="st2" x1="469" y1="114" x2="440" y2="114"/>
	<line class="st2" x1="512" y1="104" x2="480.69" y2="114"/>
	<g>
		<line class="st2" x1="1000" y1="140" x2="1007.17" y2="133.77"/>
		<g>
			<circle class="st0" cx="821" cy="197" r="5"/>
			<path class="st0" d="M821,192.5c2.48,0,4.5,2.02,4.5,4.5s-2.02,4.5-4.5,4.5s-4.5-2.02-4.5-4.5S818.52,192.5,821,192.5 M821,191.5
				c-3.04,0-5.5,2.46-5.5,5.5s2.46,5.5,5.5,5.5s5.5-2.46,5.5-5.5S824.04,191.5,821,191.5L821,191.5z"/>
		</g>
		<g>
			<path class="st0" d="M1020,172c3.86,0,7,3.14,7,7s-3.14,7-7,7s-7-3.14-7-7S1016.14,172,1020,172 M1020,171c-4.42,0-8,3.58-8,8
				s3.58,8,8,8s8-3.58,8-8S1024.42,171,1020,171L1020,171z"/>
		</g>
		<g>
			<g>
				<path class="st0" d="M412,133c14.34,0,26,11.66,26,26s-11.66,26-26,26s-26-11.66-26-26S397.66,133,412,133 M412,131
					c-15.46,0-28,12.54-28,28s12.54,28,28,28s28-12.54,28-28S427.46,131,412,131L412,131z"/>
			</g>
		</g>
		<g>
			<path class="st0" d="M520,132c14.34,0,26,11.66,26,26s-11.66,26-26,26s-26-11.66-26-26S505.66,132,520,132 M520,130
				c-15.46,0-28,12.54-28,28s12.54,28,28,28s28-12.54,28-28S535.46,130,520,130L520,130z"/>
		</g>
		<g>
			<path class="st0" d="M749,164c9.93,0,18,8.07,18,18s-8.07,18-18,18s-18-8.07-18-18S739.07,164,749,164 M749,162
				c-11.05,0-20,8.95-20,20s8.95,20,20,20s20-8.95,20-20S760.05,162,749,162L749,162z"/>
		</g>
		<g>
			<path class="st0" d="M821,179c9.93,0,18,8.07,18,18s-8.07,18-18,18s-18-8.07-18-18S811.07,179,821,179 M821,177
				c-11.05,0-20,8.95-20,20s8.95,20,20,20s20-8.95,20-20S832.05,177,821,177L821,177z"/>
		</g>
		<g>
			<path class="st0" d="M977,157c14.34,0,26,11.66,26,26s-11.66,26-26,26s-26-11.66-26-26S962.66,157,977,157 M977,155
				c-15.46,0-28,12.54-28,28s12.54,28,28,28s28-12.54,28-28S992.46,155,977,155L977,155z"/>
		</g>
		<g>
			<path class="st0" d="M1072,133c14.34,0,26,11.66,26,26s-11.66,26-26,26s-26-11.66-26-26S1057.66,133,1072,133 M1072,131
				c-15.46,0-28,12.54-28,28s12.54,28,28,28s28-12.54,28-28S1087.46,131,1072,131L1072,131z"/>
		</g>
		<g>
			<circle class="st0" cx="749" cy="182" r="5"/>
			<path class="st0" d="M749,177.5c2.48,0,4.5,2.02,4.5,4.5s-2.02,4.5-4.5,4.5s-4.5-2.02-4.5-4.5S746.52,177.5,749,177.5 M749,176.5
				c-3.04,0-5.5,2.46-5.5,5.5s2.46,5.5,5.5,5.5s5.5-2.46,5.5-5.5S752.04,176.5,749,176.5L749,176.5z"/>
		</g>
		<g>
			<circle class="st0" cx="977" cy="183" r="7.5"/>
			<path class="st0" d="M977,176c3.86,0,7,3.14,7,7s-3.14,7-7,7s-7-3.14-7-7S973.14,176,977,176 M977,175c-4.42,0-8,3.58-8,8
				s3.58,8,8,8s8-3.58,8-8S981.42,175,977,175L977,175z"/>
		</g>
		<g>
			<circle class="st0" cx="1072" cy="158" r="7.5"/>
			<path class="st0" d="M1072,151c3.86,0,7,3.14,7,7s-3.14,7-7,7s-7-3.14-7-7S1068.14,151,1072,151 M1072,150c-4.42,0-8,3.58-8,8
				s3.58,8,8,8s8-3.58,8-8S1076.42,150,1072,150L1072,150z"/>
		</g>
		<g>
			<circle class="st0" cx="520" cy="159" r="7.5"/>
			<path class="st0" d="M520,152c3.86,0,7,3.14,7,7s-3.14,7-7,7s-7-3.14-7-7S516.14,152,520,152 M520,151c-4.42,0-8,3.58-8,8
				s3.58,8,8,8s8-3.58,8-8S524.42,151,520,151L520,151z"/>
		</g>
		<g>
			<path class="st0" d="M454,155c3.86,0,7,3.14,7,7s-3.14,7-7,7s-7-3.14-7-7S450.14,155,454,155 M454,154c-4.42,0-8,3.58-8,8
				s3.58,8,8,8s8-3.58,8-8S458.42,154,454,154L454,154z"/>
		</g>
		<g>
			<path class="st0" d="M778.5,187c2.48,0,4.5,2.02,4.5,4.5s-2.02,4.5-4.5,4.5s-4.5-2.02-4.5-4.5S776.02,187,778.5,187 M778.5,186
				c-3.04,0-5.5,2.46-5.5,5.5s2.46,5.5,5.5,5.5s5.5-2.46,5.5-5.5S781.54,186,778.5,186L778.5,186z"/>
		</g>
		<polyline class="st3" points="24.5,210.5 88.5,189.5 115.5,199.5 176.5,185.5 226.5,187.5 259.5,170.5 306.5,170.5 352.5,181.5 
			384.5,178.5 427.5,197.5 462.5,187.5 492.5,185.5 528,187 557.5,182.5 597.5,170.5 662.5,178.5 709.5,191.5 743.5,202 
			786.5,202.5 811.04,217 848.5,216.5 891.5,201.5 933.5,210.5 977.5,210.5 1036.5,201.5 1077,191.5 1124.5,158.5 1179.5,141.5 
			1237.5,131.5 1315.5,131.5 1378.5,155.5 1410.5,176.5 1492.5,197.5 		"/>
		<polygon class="st1" points="412,159 454,162 440,117 		"/>
		<polygon class="st1" points="749,182 779,191 773,159 		"/>
		<polygon class="st1" points="977,183 1020,179.33 999,138 		"/>
		<line class="st1" x1="454" y1="162" x2="514" y2="114"/>
		<polyline class="st1" points="821,197 827,154 835,147 		"/>
		<line class="st1" x1="779" y1="191" x2="825" y2="166"/>
		<line class="st1" x1="1020" y1="179" x2="1056" y2="123"/>
		<path class="st1" d="M520,92l-8,5v-9l-20-7l-10-15V55c0-17-18-13-18-13l-34,31c-6,6-3,9-3,9s4,28,42,32l-15.5,33.5l8,4l22-43
			l-30-19l22-13l8,12L512,97l8,62"/>
		<path class="st1" d="M479.72,43.28l12.78,7.22l6-7l-6-4l3-5l10,3l-10-13C471.5,24.5,479.72,43.28,479.72,43.28z"/>
		<path class="st1" d="M1053.7,101.96l-4.46,6.33l-2.57-7.98l-16.72-1.46l-11.65-10.92l-3.15-9.75
			c-4.86-15.07-16.97-7.25-16.97-7.25l-16.16,35.55c-2.7,6.74,0.37,8.69,0.37,8.69s10.95,23.87,40.06,18.39l-1.83,33.37l7.03,1.65
			l3.89-43.34l-27.51-9.72l12.47-16.75l9.32,8.74l23.41,0.77l23.62,53.06"/>
		<path class="st1" d="M1008.99,69.08l14.35,3.08l3.64-8.47l-6.92-2.03l1.37-5.67l10.44-0.12l-13.42-9.43
			C995.55,53.61,1008.99,69.08,1008.99,69.08z"/>
		<polyline class="st1" points="982.5,129.5 989.99,125.09 998.5,137.5 		"/>
		<line class="st2" x1="1032" y1="125" x2="1051" y2="113"/>
		<path class="st1" d="M813.52,108.39l10.9,6.11l5.12-5.92l-5.12-3.38l2.56-4.23l8.53,2.54l-8.53-11
			C806.51,92.5,813.52,108.39,813.52,108.39z"/>
		<path class="st1" d="M815.5,114.5l-2,11l2,14l11,5l-2,7l-15-11l-2-9l-14,8l12,20l-19,27l-5-4l14-23c-26-8-22-26-22-26
			c-1-8,5-10,5-10l26-12C809.5,100.5,815.5,114.5,815.5,114.5z"/>
		<polyline class="st1" points="764,140 773,144 773,159 795,159 		"/>
		<line class="st1" x1="806" y1="159" x2="826" y2="159"/>
	</g>
</g>
</svg>
