<?xml version="1.0" encoding="utf-8"?>
<!-- Generator: Adobe Illustrator 23.0.3, SVG Export Plug-In . SVG Version: 6.00 Build 0)  -->
<svg version="1.1" id="Layer_1" xmlns="http://www.w3.org/2000/svg" xmlns:xlink="http://www.w3.org/1999/xlink" x="0px" y="0px"
	 viewBox="0 0 1897 276" style="enable-background:new 0 0 1897 276;" xml:space="preserve">
<style type="text/css">
	.st0{fill:#246383;stroke:#4F779C;stroke-width:2;stroke-miterlimit:10;}
	.st1{fill:#A7BFD0;}
	.st2{fill:#4F779C;}
	.st3{fill:none;stroke:#4F779C;stroke-width:3;stroke-miterlimit:10;}
	.st4{fill:none;stroke:#4F779C;stroke-width:2;stroke-miterlimit:10;}
</style>
<g>
	<line class="st0" x1="1000" y1="181" x2="1007.17" y2="174.77"/>
	<g>
		<circle class="st1" cx="821" cy="238" r="5"/>
		<path class="st2" d="M821,233.5c2.48,0,4.5,2.02,4.5,4.5s-2.02,4.5-4.5,4.5s-4.5-2.02-4.5-4.5S818.52,233.5,821,233.5 M821,232.5
			c-3.04,0-5.5,2.46-5.5,5.5s2.46,5.5,5.5,5.5s5.5-2.46,5.5-5.5S824.04,232.5,821,232.5L821,232.5z"/>
	</g>
	<g>
		<path class="st2" d="M1020,213c3.86,0,7,3.14,7,7s-3.14,7-7,7s-7-3.14-7-7S1016.14,213,1020,213 M1020,212c-4.42,0-8,3.58-8,8
			s3.58,8,8,8s8-3.58,8-8S1024.42,212,1020,212L1020,212z"/>
	</g>
	<g>
		<g>
			<path class="st2" d="M412,174c14.34,0,26,11.66,26,26s-11.66,26-26,26s-26-11.66-26-26S397.66,174,412,174 M412,172
				c-15.46,0-28,12.54-28,28s12.54,28,28,28s28-12.54,28-28S427.46,172,412,172L412,172z"/>
		</g>
	</g>
	<g>
		<path class="st2" d="M520,173c14.34,0,26,11.66,26,26s-11.66,26-26,26s-26-11.66-26-26S505.66,173,520,173 M520,171
			c-15.46,0-28,12.54-28,28s12.54,28,28,28s28-12.54,28-28S535.46,171,520,171L520,171z"/>
	</g>
	<g>
		<path class="st2" d="M749,205c9.93,0,18,8.07,18,18s-8.07,18-18,18s-18-8.07-18-18S739.07,205,749,205 M749,203
			c-11.05,0-20,8.95-20,20s8.95,20,20,20s20-8.95,20-20S760.05,203,749,203L749,203z"/>
	</g>
	<g>
		<path class="st2" d="M821,220c9.93,0,18,8.07,18,18s-8.07,18-18,18s-18-8.07-18-18S811.07,220,821,220 M821,218
			c-11.05,0-20,8.95-20,20s8.95,20,20,20s20-8.95,20-20S832.05,218,821,218L821,218z"/>
	</g>
	<g>
		<path class="st2" d="M977,198c14.34,0,26,11.66,26,26s-11.66,26-26,26s-26-11.66-26-26S962.66,198,977,198 M977,196
			c-15.46,0-28,12.54-28,28s12.54,28,28,28s28-12.54,28-28S992.46,196,977,196L977,196z"/>
	</g>
	<g>
		<path class="st2" d="M1072,174c14.34,0,26,11.66,26,26s-11.66,26-26,26s-26-11.66-26-26S1057.66,174,1072,174 M1072,172
			c-15.46,0-28,12.54-28,28s12.54,28,28,28s28-12.54,28-28S1087.46,172,1072,172L1072,172z"/>
	</g>
	<g>
		<circle class="st1" cx="749" cy="223" r="5"/>
		<path class="st2" d="M749,218.5c2.48,0,4.5,2.02,4.5,4.5s-2.02,4.5-4.5,4.5s-4.5-2.02-4.5-4.5S746.52,218.5,749,218.5 M749,217.5
			c-3.04,0-5.5,2.46-5.5,5.5s2.46,5.5,5.5,5.5s5.5-2.46,5.5-5.5S752.04,217.5,749,217.5L749,217.5z"/>
	</g>
	<g>
		<circle class="st1" cx="977" cy="224" r="7.5"/>
		<path class="st2" d="M977,217c3.86,0,7,3.14,7,7s-3.14,7-7,7s-7-3.14-7-7S973.14,217,977,217 M977,216c-4.42,0-8,3.58-8,8
			s3.58,8,8,8s8-3.58,8-8S981.42,216,977,216L977,216z"/>
	</g>
	<g>
		<circle class="st1" cx="1072" cy="199" r="7.5"/>
		<path class="st2" d="M1072,192c3.86,0,7,3.14,7,7s-3.14,7-7,7s-7-3.14-7-7S1068.14,192,1072,192 M1072,191c-4.42,0-8,3.58-8,8
			s3.58,8,8,8s8-3.58,8-8S1076.42,191,1072,191L1072,191z"/>
	</g>
	<g>
		<circle class="st1" cx="520" cy="200" r="7.5"/>
		<path class="st2" d="M520,193c3.86,0,7,3.14,7,7s-3.14,7-7,7s-7-3.14-7-7S516.14,193,520,193 M520,192c-4.42,0-8,3.58-8,8
			s3.58,8,8,8s8-3.58,8-8S524.42,192,520,192L520,192z"/>
	</g>
	<g>
		<circle class="st1" cx="412" cy="200" r="7.5"/>
		<path class="st2" d="M412,193c3.86,0,7,3.14,7,7s-3.14,7-7,7s-7-3.14-7-7S408.14,193,412,193 M412,192c-4.42,0-8,3.58-8,8
			s3.58,8,8,8s8-3.58,8-8S416.42,192,412,192L412,192z"/>
	</g>
	<g>
		<path class="st2" d="M454,196c3.86,0,7,3.14,7,7s-3.14,7-7,7s-7-3.14-7-7S450.14,196,454,196 M454,195c-4.42,0-8,3.58-8,8
			s3.58,8,8,8s8-3.58,8-8S458.42,195,454,195L454,195z"/>
	</g>
	<g>
		<path class="st2" d="M778.5,228c2.48,0,4.5,2.02,4.5,4.5s-2.02,4.5-4.5,4.5s-4.5-2.02-4.5-4.5S776.02,228,778.5,228 M778.5,227
			c-3.04,0-5.5,2.46-5.5,5.5s2.46,5.5,5.5,5.5s5.5-2.46,5.5-5.5S781.54,227,778.5,227L778.5,227z"/>
	</g>
	<polyline class="st3" points="24.5,251.5 88.5,230.5 115.5,240.5 176.5,226.5 226.5,228.5 259.5,211.5 306.5,211.5 352.5,222.5 
		384.5,219.5 427.5,238.5 462.5,228.5 492.5,226.5 528,228 557.5,223.5 597.5,211.5 662.5,219.5 709.5,232.5 743.5,243 786.5,243.5 
		811.04,258 848.5,257.5 891.5,242.5 933.5,251.5 977.5,251.5 1036.5,242.5 1077,232.5 1124.5,199.5 1179.5,182.5 1237.5,172.5 
		1315.5,172.5 1378.5,196.5 1410.5,217.5 1492.5,238.5 	"/>
	<polygon class="st4" points="412,200 454,203 440,158 	"/>
	<polygon class="st4" points="749,223 779,232 773,200 	"/>
	<polygon class="st4" points="977,224 1020,220.33 999,179 	"/>
	<line class="st4" x1="454" y1="203" x2="514" y2="155"/>
	<polyline class="st4" points="821,238 827,195 835,188 	"/>
	<line class="st4" x1="779" y1="232" x2="825" y2="207"/>
	<line class="st4" x1="1020" y1="220" x2="1056" y2="164"/>
	<path class="st4" d="M520,133l-8,5v-9l-20-7l-10-15V96c0-17-18-13-18-13l-34,31c-6,6-3,9-3,9s4,28,42,32l-15.5,33.5l8,4l22-43
		l-30-19l22-13l8,12L512,138l8,62"/>
	<polyline class="st4" points="424.5,138.5 434.14,138 439.5,158.5 	"/>
	<path class="st4" d="M479.72,84.28l12.78,7.22l6-7l-6-4l3-5l10,3l-10-13C471.5,65.5,479.72,84.28,479.72,84.28z"/>
	<path class="st4" d="M1053.7,142.96l-4.46,6.33l-2.57-7.98l-16.72-1.46l-11.65-10.92l-3.15-9.75c-4.86-15.07-16.97-7.25-16.97-7.25
		l-16.16,35.55c-2.7,6.74,0.37,8.69,0.37,8.69s10.95,23.87,40.06,18.39l-1.83,33.37l7.03,1.65l3.89-43.34l-27.51-9.72l12.47-16.75
		l9.32,8.74l23.41,0.77l23.62,53.06"/>
	<path class="st4" d="M1008.99,110.08l14.35,3.08l3.64-8.47l-6.92-2.03l1.37-5.67l10.44-0.12l-13.42-9.43
		C995.55,94.61,1008.99,110.08,1008.99,110.08z"/>
	<polyline class="st4" points="982.5,170.5 989.99,166.09 998.5,178.5 	"/>
	<line class="st0" x1="469" y1="155" x2="440" y2="155"/>
	<line class="st0" x1="512" y1="145" x2="480.69" y2="155"/>
	<line class="st0" x1="1032" y1="166" x2="1051" y2="154"/>
	<path class="st4" d="M813.52,149.39l10.9,6.11l5.12-5.92l-5.12-3.38l2.56-4.23l8.53,2.54l-8.53-11
		C806.51,133.5,813.52,149.39,813.52,149.39z"/>
	<path class="st4" d="M815.5,155.5l-2,11l2,14l11,5l-2,7l-15-11l-2-9l-14,8l12,20l-19,27l-5-4l14-23c-26-8-22-26-22-26
		c-1-8,5-10,5-10l26-12C809.5,141.5,815.5,155.5,815.5,155.5z"/>
	<polyline class="st4" points="764,181 773,185 773,200 795,200 	"/>
	<line class="st4" x1="806" y1="200" x2="826" y2="200"/>
</g>
</svg>
